<?xml version="1.0" encoding="UTF-8" standalone="no"?>
<!DOCTYPE svg PUBLIC "-//W3C//DTD SVG 1.1//EN" "http://www.w3.org/Graphics/SVG/1.1/DTD/svg11.dtd">
<svg width="100%" height="100%" viewBox="0 0 1550 1720" version="1.1" xmlns="http://www.w3.org/2000/svg" xmlns:xlink="http://www.w3.org/1999/xlink" xml:space="preserve" xmlns:serif="http://www.serif.com/" style="fill-rule:evenodd;clip-rule:evenodd;stroke-linejoin:round;stroke-miterlimit:2;">
    <g transform="matrix(1,0,0,1,-1225.3764,-3532.179209)">
        <rect id="Prancheta4" x="0" y="3050" width="4000" height="3000" style="fill:white;"/>
        <g id="Prancheta41" serif:id="Prancheta4">
            <g>
                <g transform="matrix(1.374368,0,0,1.374368,-876.192889,-2453.235761)">
                    <path d="M2010.586,4377.096C2061.546,4347.675 2124.332,4347.675 2175.292,4377.097L2574.409,4607.527C2625.369,4636.949 2656.761,4691.322 2656.761,4750.166L2656.761,5211.027C2656.761,5269.87 2625.369,5324.244 2574.409,5353.665L2175.291,5584.096C2124.332,5613.517 2061.546,5613.517 2010.586,5584.096L1611.469,5353.665C1560.509,5324.244 1529.117,5269.87 1529.117,5211.026L1529.117,4750.166C1529.117,4691.322 1560.509,4636.949 1611.469,4607.527L2010.586,4377.096ZM2030.292,4411.228L1631.175,4641.659C1592.409,4664.04 1568.529,4705.403 1568.529,4750.166L1568.529,5211.026C1568.529,5255.789 1592.409,5297.152 1631.175,5319.533L2030.292,5549.964C2069.058,5572.345 2116.82,5572.345 2155.585,5549.964L2554.703,5319.533C2593.468,5297.152 2617.349,5255.789 2617.349,5211.026L2617.349,4750.166C2617.349,4705.403 2593.468,4664.04 2554.703,4641.659L2155.585,4411.228C2116.82,4388.847 2069.058,4388.847 2030.292,4411.228Z"/>
                </g>
                <g transform="matrix(1.196802,0,0,1.196802,-504.557567,-1568.849978)">
                    <path d="M2058.157,4819.361C2080.334,4829.046 2105.544,4829.046 2127.721,4819.361L2474.627,4667.85C2515.487,4650.004 2562.59,4653.964 2599.897,4678.38C2637.204,4702.796 2659.685,4744.377 2659.685,4788.964L2659.685,5198.606C2659.685,5266.18 2623.635,5328.621 2565.114,5362.408L2187.51,5580.417C2128.989,5614.204 2056.889,5614.204 1998.368,5580.417L1620.764,5362.408C1562.243,5328.621 1526.193,5266.18 1526.193,5198.606L1526.193,4788.964C1526.193,4744.377 1548.674,4702.796 1585.981,4678.38C1623.288,4653.964 1670.391,4650.004 1711.251,4667.85L2058.157,4819.361ZM2040.043,4860.837L1693.136,4709.326C1666.269,4697.592 1635.297,4700.196 1610.766,4716.25C1586.235,4732.305 1571.452,4759.646 1571.452,4788.964L1571.452,5198.606C1571.452,5250.01 1598.876,5297.51 1643.394,5323.212L2020.998,5541.222C2065.515,5566.924 2120.363,5566.924 2164.88,5541.222L2542.484,5323.212C2587.002,5297.51 2614.425,5250.01 2614.425,5198.606L2614.425,4788.964C2614.425,4759.646 2599.643,4732.305 2575.112,4716.25C2550.581,4700.196 2519.609,4697.592 2492.742,4709.326L2145.835,4860.837C2112.109,4875.567 2073.769,4875.567 2040.043,4860.837Z"/>
                </g>
                <g transform="matrix(0.919679,0,0,0.919679,165.877136,216.172602)">
                    <path d="M1351.575,4852.746C1351.72,4886.43 1369.992,4917.427 1399.394,4933.865C1519.832,5001.199 1835.573,5177.721 1954.132,5244.004C1982.611,5259.926 2017.335,5259.831 2045.727,5243.754C2162.992,5177.352 2473.535,5001.504 2592.588,4934.088C2621.866,4917.51 2639.963,4886.464 2639.963,4852.818C2639.963,4739.801 2639.963,4476.649 2639.963,4312.86C2639.963,4281.645 2624.368,4252.493 2598.401,4235.169C2572.434,4217.845 2539.529,4214.639 2510.707,4226.625C2361.424,4288.704 2124.933,4387.05 2035.677,4424.167C2012.831,4433.667 1987.149,4433.714 1964.269,4424.298C1873.474,4386.929 1630.332,4286.859 1478.192,4224.243C1449.316,4212.359 1416.412,4215.691 1390.505,4233.125C1364.599,4250.558 1349.118,4279.784 1349.252,4311.01C1349.957,4475.247 1351.089,4739.405 1351.575,4852.746Z"/>
                </g>
                <g transform="matrix(0.712518,0,0,0.67686,548.682447,1492.56355)">
                    <g transform="matrix(1,0,0,1,12.62902,-37.519345)">
                        <path d="M1761.428,4361.448L1761.428,4813.59C1761.428,4862.2 1723.938,4901.665 1677.761,4901.665C1631.584,4901.665 1594.095,4862.2 1594.095,4813.59L1594.095,4361.448C1594.095,4312.839 1631.584,4273.374 1677.761,4273.374C1723.938,4273.374 1761.428,4312.839 1761.428,4361.448Z" style="fill:white;"/>
                    </g>
                    <g transform="matrix(1,0,0,1,705.620197,-37.519345)">
                        <path d="M1761.428,4361.448L1761.428,4813.59C1761.428,4862.2 1723.938,4901.665 1677.761,4901.665C1631.584,4901.665 1594.095,4862.2 1594.095,4813.59L1594.095,4361.448C1594.095,4312.839 1631.584,4273.374 1677.761,4273.374C1723.938,4273.374 1761.428,4312.839 1761.428,4361.448Z" style="fill:white;"/>
                    </g>
                </g>
            </g>
        </g>
    </g>
</svg>
