<?xml version="1.0" encoding="UTF-8" standalone="no"?>
<!DOCTYPE svg PUBLIC "-//W3C//DTD SVG 1.1//EN" "http://www.w3.org/Graphics/SVG/1.1/DTD/svg11.dtd">
<svg width="100%" height="100%" viewBox="0 0 3486 842" version="1.1" xmlns="http://www.w3.org/2000/svg" xmlns:xlink="http://www.w3.org/1999/xlink" xml:space="preserve" xmlns:serif="http://www.serif.com/" style="fill-rule:evenodd;clip-rule:evenodd;stroke-linejoin:round;stroke-miterlimit:2;">
    <g transform="matrix(1,0,0,1,-4307.493342,-1079.080262)">
        <rect id="Prancheta2" x="4050" y="0" width="4000" height="3000" style="fill:none;"/>
        <g id="Prancheta21" serif:id="Prancheta2">
            <g transform="matrix(1,0,0,1,-91.090528,200.234018)">
                <g transform="matrix(0.60689,0,0,0.60689,4121.413427,810.351048)">
                    <path d="M1143.081,1500C1106.504,1500 1076.852,1470.348 1076.852,1433.772C1076.852,1310.935 1076.852,1060.168 1076.852,1060.168C1076.852,866.056 1234.211,708.698 1428.323,708.698L1801.926,708.698C1838.503,708.698 1868.154,738.349 1868.154,774.926L1868.154,926.188C1868.154,947.645 1857.759,967.773 1840.261,980.194C1822.764,992.614 1800.333,995.787 1780.077,988.708C1629.822,936.198 1340.024,834.922 1340.024,834.922C1301.056,821.304 1257.733,831.202 1228.544,860.39C1199.356,889.578 1189.459,932.902 1203.077,971.869C1203.077,971.869 1304.353,1261.667 1356.863,1411.922C1363.942,1432.179 1360.768,1454.609 1348.348,1472.107C1335.928,1489.604 1315.8,1500 1294.342,1500C1245.608,1500 1187.123,1500 1143.081,1500ZM1181.78,112.863C1218.357,112.863 1248.009,142.514 1248.009,179.091C1248.009,301.928 1248.009,552.695 1248.009,552.695C1248.009,746.806 1090.65,904.165 896.538,904.165L522.935,904.165C486.358,904.165 456.706,874.513 456.706,837.936C456.706,793.894 456.706,735.409 456.706,686.675C456.706,665.217 467.102,645.089 484.6,632.669C502.097,620.249 524.528,617.075 544.784,624.154C695.039,676.664 984.837,777.94 984.837,777.94C1023.805,791.558 1067.128,781.661 1096.317,752.473C1125.505,723.285 1135.402,679.961 1121.784,640.993C1121.784,640.993 1020.508,351.195 967.998,200.94C960.919,180.684 964.093,158.253 976.513,140.756C988.933,123.258 1009.061,112.863 1030.519,112.863C1079.252,112.863 1137.738,112.863 1181.78,112.863ZM882.039,383.601C959.948,383.601 1023.2,446.853 1023.2,524.763C1023.2,602.672 959.948,665.924 882.039,665.924C804.13,665.924 740.877,602.672 740.877,524.763C740.877,446.853 804.13,383.601 882.039,383.601Z" style="fill:rgb(22,83,255);"/>
                </g>
                <g transform="matrix(15.847316,0,0,15.847316,-14327.146256,-22641.802963)">
                    <path d="M1246.596,1528.058L1246.596,1496.354C1246.596,1494.534 1248.072,1493.058 1249.893,1493.058L1254.696,1493.058L1254.696,1524.761C1254.696,1526.582 1253.22,1528.058 1251.399,1528.058L1246.596,1528.058ZM1270.996,1506.814L1270.996,1528.058L1266.789,1528.058C1264.694,1528.058 1262.996,1526.359 1262.996,1524.264L1262.996,1496.018C1262.996,1494.383 1264.321,1493.058 1265.956,1493.058L1268.946,1493.058C1269.421,1493.058 1269.871,1493.271 1270.172,1493.638L1287.096,1514.292L1287.096,1493.058L1291.303,1493.058C1293.398,1493.058 1295.096,1494.756 1295.096,1496.851L1295.096,1525.098C1295.096,1526.732 1293.771,1528.058 1292.136,1528.058L1289.195,1528.058C1288.721,1528.058 1288.272,1527.845 1287.971,1527.479L1270.996,1506.814ZM1311.446,1519.223L1311.446,1528.058L1303.396,1528.058L1303.396,1496.496C1303.396,1495.584 1303.758,1494.71 1304.403,1494.065C1305.048,1493.42 1305.923,1493.058 1306.835,1493.058L1311.446,1493.058L1311.446,1509.39L1325.929,1494.129C1326.578,1493.445 1327.48,1493.058 1328.423,1493.058L1335.946,1493.058L1321.456,1508.651L1336.796,1528.058L1328.978,1528.058C1327.945,1528.058 1326.967,1527.594 1326.314,1526.794L1316.136,1514.327L1311.446,1519.223ZM1343.933,1528.058C1341.98,1528.058 1340.396,1526.474 1340.396,1524.521L1340.396,1493.058L1344.959,1493.058C1345.897,1493.058 1346.797,1493.43 1347.46,1494.094C1348.123,1494.757 1348.496,1495.657 1348.496,1496.595L1348.496,1521.458L1362.416,1521.458C1363.379,1521.458 1364.302,1521.84 1364.983,1522.521C1365.664,1523.201 1366.046,1524.125 1366.046,1525.087L1366.046,1528.058L1343.933,1528.058ZM1385.696,1528.658C1380.729,1528.658 1376.846,1527.274 1374.046,1524.508C1371.246,1521.741 1369.846,1517.791 1369.846,1512.658L1369.846,1494.186C1369.846,1493.887 1369.965,1493.6 1370.177,1493.388C1370.388,1493.177 1370.675,1493.058 1370.975,1493.058L1374.834,1493.058C1376.553,1493.058 1377.946,1494.451 1377.946,1496.17L1377.946,1512.358C1377.946,1515.691 1378.629,1518.091 1379.996,1519.558C1381.363,1521.024 1383.279,1521.758 1385.746,1521.758C1388.213,1521.758 1390.129,1521.024 1391.496,1519.558C1392.863,1518.091 1393.546,1515.691 1393.546,1512.358L1393.546,1496.17C1393.546,1495.345 1393.874,1494.553 1394.458,1493.969C1395.041,1493.386 1395.833,1493.058 1396.659,1493.058L1400.417,1493.058C1400.717,1493.058 1401.004,1493.177 1401.215,1493.388C1401.427,1493.6 1401.546,1493.887 1401.546,1494.186L1401.546,1512.658C1401.546,1517.791 1400.146,1521.741 1397.346,1524.508C1394.546,1527.274 1390.663,1528.658 1385.696,1528.658Z" style="fill:rgb(22,83,255);"/>
                </g>
            </g>
        </g>
    </g>
</svg>
