<?xml version="1.0" encoding="UTF-8" standalone="no"?>
<!DOCTYPE svg PUBLIC "-//W3C//DTD SVG 1.1//EN" "http://www.w3.org/Graphics/SVG/1.1/DTD/svg11.dtd">
<svg width="100%" height="100%" viewBox="0 0 857 842" version="1.1" xmlns="http://www.w3.org/2000/svg" xmlns:xlink="http://www.w3.org/1999/xlink" xml:space="preserve" xmlns:serif="http://www.serif.com/" style="fill-rule:evenodd;clip-rule:evenodd;stroke-linejoin:round;stroke-miterlimit:2;">
    <g transform="matrix(1,0,0,1,-9671.703295,-1079.080262)">
        <rect id="Prancheta3" x="8100" y="0" width="4000" height="3000" style="fill:none;"/>
        <g id="Prancheta31" serif:id="Prancheta3">
            <g transform="matrix(0.60689,0,0,0.60689,9394.532852,1010.585067)">
                <path d="M1143.081,1500C1106.504,1500 1076.852,1470.348 1076.852,1433.772C1076.852,1310.935 1076.852,1060.168 1076.852,1060.168C1076.852,866.056 1234.211,708.698 1428.323,708.698L1801.926,708.698C1838.503,708.698 1868.154,738.349 1868.154,774.926C1868.154,818.968 1868.154,877.454 1868.154,926.188C1868.154,947.645 1857.759,967.773 1840.261,980.194C1822.764,992.614 1800.333,995.787 1780.077,988.708C1629.822,936.198 1340.024,834.922 1340.024,834.922C1301.056,821.304 1257.733,831.202 1228.544,860.39C1199.356,889.578 1189.459,932.902 1203.077,971.869C1203.077,971.869 1304.353,1261.667 1356.863,1411.922C1363.942,1432.179 1360.768,1454.609 1348.348,1472.107C1335.928,1489.604 1315.8,1500 1294.342,1500C1245.608,1500 1187.123,1500 1143.081,1500ZM1181.78,112.863C1218.357,112.863 1248.009,142.514 1248.009,179.091C1248.009,301.928 1248.009,552.695 1248.009,552.695C1248.009,746.806 1090.65,904.165 896.538,904.165L522.935,904.165C486.358,904.165 456.706,874.513 456.706,837.936L456.706,686.675C456.706,665.217 467.102,645.089 484.6,632.669C502.097,620.249 524.528,617.075 544.784,624.154C695.039,676.664 984.837,777.94 984.837,777.94C1023.805,791.558 1067.128,781.661 1096.317,752.473C1125.505,723.285 1135.402,679.961 1121.784,640.993C1121.784,640.993 1020.508,351.195 967.998,200.94C960.919,180.684 964.093,158.253 976.513,140.756C988.933,123.258 1009.061,112.863 1030.519,112.863L1181.78,112.863ZM882.039,383.601C959.948,383.601 1023.2,446.853 1023.2,524.763C1023.2,602.672 959.948,665.924 882.039,665.924C804.13,665.924 740.877,602.672 740.877,524.763C740.877,446.853 804.13,383.601 882.039,383.601Z" style="fill:rgb(22,83,255);"/>
            </g>
        </g>
    </g>
</svg>
